<svg height="1358" width="720" xmlns="http://www.w3.org/2000/svg">
<rect height="1358" fill="#555" width="720"></rect>
<text fill="#7f7" font-family="Courier New" font-size="12" xml:space="preserve">
<tspan x="10" y="26">4 megabytes installed</tspan>
<tspan x="10" y="42"></tspan>
<tspan x="10" y="58">node_modules</tspan>
<tspan x="10" y="74">└─┬ copy@0.3.0 </tspan>
<tspan x="10" y="90">  ├── async-each@1.0.1 </tspan>
<tspan x="10" y="106">  ├── bluebird@3.5.0 </tspan>
<tspan x="10" y="122">  ├─┬ extend-shallow@2.0.1 </tspan>
<tspan x="10" y="138">  │ └── is-extendable@0.1.1 </tspan>
<tspan x="10" y="154">  ├─┬ file-contents@0.3.2 </tspan>
<tspan x="10" y="170">  │ ├─┬ define-property@0.2.5 </tspan>
<tspan x="10" y="186">  │ │ └─┬ is-descriptor@0.1.5 </tspan>
<tspan x="10" y="202">  │ │   ├── is-accessor-descriptor@0.1.6 </tspan>
<tspan x="10" y="218">  │ │   ├── is-data-descriptor@0.1.4 </tspan>
<tspan x="10" y="234">  │ │   └── kind-of@3.2.0 </tspan>
<tspan x="10" y="250">  │ ├── file-stat@0.2.3 </tspan>
<tspan x="10" y="266">  │ ├── fs-exists-sync@0.1.0 </tspan>
<tspan x="10" y="282">  │ ├── is-buffer@1.1.5 </tspan>
<tspan x="10" y="298">  │ ├─┬ isobject@2.1.0 </tspan>
<tspan x="10" y="314">  │ │ └── isarray@1.0.0 </tspan>
<tspan x="10" y="330">  │ ├─┬ strip-bom-buffer@0.1.1 </tspan>
<tspan x="10" y="346">  │ │ └── is-utf8@0.2.1 </tspan>
<tspan x="10" y="362">  │ ├── strip-bom-string@0.1.2 </tspan>
<tspan x="10" y="378">  │ ├─┬ through2@2.0.3 </tspan>
<tspan x="10" y="394">  │ │ ├─┬ readable-stream@2.2.9 </tspan>
<tspan x="10" y="410">  │ │ │ ├── buffer-shims@1.0.0 </tspan>
<tspan x="10" y="426">  │ │ │ ├── core-util-is@1.0.2 </tspan>
<tspan x="10" y="442">  │ │ │ ├── process-nextick-args@1.0.7 </tspan>
<tspan x="10" y="458">  │ │ │ ├── string_decoder@1.0.0 </tspan>
<tspan x="10" y="474">  │ │ │ └── util-deprecate@1.0.2 </tspan>
<tspan x="10" y="490">  │ │ └── xtend@4.0.1 </tspan>
<tspan x="10" y="506">  │ └─┬ vinyl@1.2.0 </tspan>
<tspan x="10" y="522">  │   ├── clone@1.0.2 </tspan>
<tspan x="10" y="538">  │   ├── clone-stats@0.0.1 </tspan>
<tspan x="10" y="554">  │   └── replace-ext@0.0.1 </tspan>
<tspan x="10" y="570">  ├─┬ glob-parent@2.0.0 </tspan>
<tspan x="10" y="586">  │ └─┬ is-glob@2.0.1 </tspan>
<tspan x="10" y="602">  │   └── is-extglob@1.0.0 </tspan>
<tspan x="10" y="618">  ├── graceful-fs@4.1.11 </tspan>
<tspan x="10" y="634">  ├── has-glob@0.1.1 </tspan>
<tspan x="10" y="650">  ├─┬ is-absolute@0.2.6 </tspan>
<tspan x="10" y="666">  │ ├─┬ is-relative@0.2.1 </tspan>
<tspan x="10" y="682">  │ │ └─┬ is-unc-path@0.1.2 </tspan>
<tspan x="10" y="698">  │ │   └── unc-path-regex@0.1.2 </tspan>
<tspan x="10" y="714">  │ └── is-windows@0.2.0 </tspan>
<tspan x="10" y="730">  ├─┬ lazy-cache@2.0.2 </tspan>
<tspan x="10" y="746">  │ └─┬ set-getter@0.1.0 </tspan>
<tspan x="10" y="762">  │   └── to-object-path@0.3.0 </tspan>
<tspan x="10" y="778">  ├─┬ log-ok@0.1.1 </tspan>
<tspan x="10" y="794">  │ ├─┬ ansi-green@0.1.1 </tspan>
<tspan x="10" y="810">  │ │ └── ansi-wrap@0.1.0 </tspan>
<tspan x="10" y="826">  │ └── success-symbol@0.1.0 </tspan>
<tspan x="10" y="842">  ├─┬ matched@0.4.4 </tspan>
<tspan x="10" y="858">  │ ├── arr-union@3.1.0 </tspan>
<tspan x="10" y="874">  │ ├── async-array-reduce@0.2.1 </tspan>
<tspan x="10" y="890">  │ ├─┬ glob@7.1.1 </tspan>
<tspan x="10" y="906">  │ │ ├── fs.realpath@1.0.0 </tspan>
<tspan x="10" y="922">  │ │ ├─┬ inflight@1.0.6 </tspan>
<tspan x="10" y="938">  │ │ │ └── wrappy@1.0.2 </tspan>
<tspan x="10" y="954">  │ │ ├── inherits@2.0.3 </tspan>
<tspan x="10" y="970">  │ │ ├─┬ minimatch@3.0.3 </tspan>
<tspan x="10" y="986">  │ │ │ └─┬ brace-expansion@1.1.7 </tspan>
<tspan x="10" y="1002">  │ │ │   ├── balanced-match@0.4.2 </tspan>
<tspan x="10" y="1018">  │ │ │   └── concat-map@0.0.1 </tspan>
<tspan x="10" y="1034">  │ │ ├── once@1.4.0 </tspan>
<tspan x="10" y="1050">  │ │ └── path-is-absolute@1.0.1 </tspan>
<tspan x="10" y="1066">  │ └── is-valid-glob@0.3.0 </tspan>
<tspan x="10" y="1082">  ├─┬ mkdirp@0.5.1 </tspan>
<tspan x="10" y="1098">  │ └── minimist@0.0.8 </tspan>
<tspan x="10" y="1114">  ├─┬ resolve-dir@0.1.1 </tspan>
<tspan x="10" y="1130">  │ ├─┬ expand-tilde@1.2.2 </tspan>
<tspan x="10" y="1146">  │ │ └── os-homedir@1.0.2 </tspan>
<tspan x="10" y="1162">  │ └─┬ global-modules@0.2.3 </tspan>
<tspan x="10" y="1178">  │   └─┬ global-prefix@0.1.5 </tspan>
<tspan x="10" y="1194">  │     ├─┬ homedir-polyfill@1.0.1 </tspan>
<tspan x="10" y="1210">  │     │ └── parse-passwd@1.0.0 </tspan>
<tspan x="10" y="1226">  │     ├── ini@1.3.4 </tspan>
<tspan x="10" y="1242">  │     └─┬ which@1.2.14 </tspan>
<tspan x="10" y="1258">  │       └── isexe@2.0.0 </tspan>
<tspan x="10" y="1274">  └─┬ to-file@0.2.0 </tspan>
<tspan x="10" y="1290">    └─┬ file-contents@0.2.4 </tspan>
<tspan x="10" y="1306">      ├─┬ file-stat@0.1.3 </tspan>
<tspan x="10" y="1322">      │ └── lazy-cache@0.2.7 </tspan>
<tspan x="10" y="1338">      └── lazy-cache@0.2.7</tspan>
</text>
</svg>
